# xmcd
#
# Track frame offsets:
#	150
#	11225
#	26700
#	33712
#	55087
#	73462
#	87137
#	94800
#	110250
#	122875
#	130237
#	144675
#	160925
#	175587
#	191000
#	206325
#
# Disc length: 2948 seconds
#
# Revision: 1
# Processed by: cddbd v1.4b42PL0 Copyright (c) Steve Scherf et al.
# Submitted via: audiograbber 1.80
#
DISCID=e60b8210
DTITLE=Louis Armstrong - Louis Armstrong's Greatest Hits
DYEAR=1900
DGENRE=
TTITLE0=Hello Dolly
TTITLE1=Mack The Knife
TTITLE2=High Society
TTITLE3=Jeepers Creepers
TTITLE4=Ain't Misbehavin'
TTITLE5=Honeysuckle Rose
TTITLE6=Blueberry Hill
TTITLE7=When It's Sleepy Time Down South
TTITLE8=Tiger Rag
TTITLE9=When The Saint Go Marching In
TTITLE10=Cabaret
TTITLE11=C'est Si Bon (It's So Good)
TTITLE12=Can Any Body Explain
TTITLE13=On The Sunny Side Of The Street
TTITLE14=Basin Street Blues
TTITLE15=You Rascal You
EXTD=
EXTT0=
EXTT1=
EXTT2=
EXTT3=
EXTT4=
EXTT5=
EXTT6=
EXTT7=
EXTT8=
EXTT9=
EXTT10=
EXTT11=
EXTT12=
EXTT13=
EXTT14=
EXTT15=
PLAYORDER=
